<?xml version="1.0" encoding="UTF-8"?>
<svg id="Layer_1" data-name="Layer 1" xmlns="http://www.w3.org/2000/svg" viewBox="0 0 411.32 411.21">
  <defs>
    <style>
      .cls-1 {
        fill: #535353;
      }
    </style>
  </defs>
  <path class="cls-1" d="M234.98,205.95c0,35.32,26.87,63.28,63.1,63.28,23.72,0,37.79-8.43,50.43-21.97l-17.22-17.41c-9.67,8.8-18.28,14.42-32.33,14.42-21.09,0-35.69-17.57-35.69-38.66v-.35c0-21.09,14.95-38.32,35.69-38.32,12.3,0,21.97,5.27,31.46,13.89l17.22-19.87c-11.42-11.24-25.31-18.97-48.5-18.97-37.81,0-64.16,28.65-64.16,63.63v.35Z"/>
  <path class="cls-1" d="M127.35,205.6v.35c0,36.38,26.37,63.28,64.69,63.28,20.4,0,36.61-7.23,48.89-16.58-9.81-12.76-15.52-28.9-15.52-46.63v-.41c0-3.15.21-6.26.55-9.33h-34.8v23.4h27.22v17.57c-6.84,4.93-15.61,7.39-25.47,7.39-21.78,0-37.26-16.53-37.26-39.03v-.35c0-20.93,15.64-38.32,35.32-38.32,14.23,0,22.66,4.56,32.17,12.48l17.06-20.56c-12.85-10.92-26.21-16.88-48.36-16.88-37.26,0-64.5,28.65-64.5,63.62Z"/>
  <path class="cls-1" d="M87.89,169.03v99.66h27.06v-99.66h11.24c5.94-10.34,14.58-18.97,25.12-24.96H57.77v24.96h30.12Z"/>
  <path class="cls-1" d="M0,0v411.21h411.32V0H0ZM384.26,384.15H27.06V27.06h357.2v357.09Z"/>
</svg>